<svg width="29" height="29" viewBox="0 0 29 29" fill="none" xmlns="http://www.w3.org/2000/svg">
<path d="M14.5 0C6.49194 0 0 6.49194 0 14.5C0 22.5081 6.49194 29 14.5 29C22.5081 29 29 22.5081 29 14.5C29 6.49194 22.5081 0 14.5 0ZM14.5 3.48C16.9145 3.48 19.1406 4.2659 20.9566 5.58308L5.5825 20.9566C4.26532 19.1406 3.48 16.9145 3.48 14.5C3.48 8.41406 8.41406 3.48 14.5 3.48ZM14.5 25.52C12.0855 25.52 9.85942 24.7341 8.04344 23.4169L23.4175 8.04344C24.7347 9.85942 25.52 12.0855 25.52 14.5C25.52 20.5859 20.5859 25.52 14.5 25.52Z" fill="#14332B"/>
</svg>
