<svg width="22" height="28" viewBox="0 0 22 28" fill="none" xmlns="http://www.w3.org/2000/svg">
<path d="M2.02553 0C0.893617 0 0 0.893617 0 2.02553V25.9745C0 27.1064 0.893617 28 2.02553 28H13.4043L21.8043 19.6V2.02553C21.8043 0.893617 20.9106 0 19.7787 0H2.02553ZM13.8809 24.9617V20.3745C13.8809 20.2553 14 20.1362 14.1191 20.1362H18.7064L13.8809 24.9617ZM20.017 2.02553V18.2894H14.1191C12.9872 18.2894 12.0936 19.183 12.0936 20.3149V26.2128H2.02553C1.90638 26.2128 1.78723 26.0936 1.78723 25.9745V2.02553C1.78723 1.90638 1.90638 1.78723 2.02553 1.78723H19.7787C19.8979 1.78723 20.017 1.90638 20.017 2.02553Z" fill="#14332B"/>
<path d="M5.48047 5.48083H16.2634V7.26807H5.48047V5.48083Z" fill="#14332B"/>
<path d="M5.48047 10.0085H16.2634V11.7958H5.48047V10.0085Z" fill="#14332B"/>
<path d="M5.48047 14.5361H10.0081V16.3234H5.48047V14.5361Z" fill="#14332B"/>
</svg>
