<svg width="28" height="29" viewBox="0 0 28 29" fill="none" xmlns="http://www.w3.org/2000/svg">
<path d="M17.67 14.0407C19.1167 13.229 20.2535 11.9605 20.9024 10.4338C21.5513 8.90708 21.6757 7.20832 21.2562 5.60335C20.8367 3.99838 19.8969 2.57779 18.584 1.56389C17.271 0.549987 15.6589 0 14 0C12.3411 0 10.7291 0.549987 9.41607 1.56389C8.10309 2.57779 7.16331 3.99838 6.7438 5.60335C6.32429 7.20832 6.44873 8.90708 7.09764 10.4338C7.74655 11.9605 8.88331 13.229 10.33 14.0407C7.5303 14.2116 4.9016 15.4455 2.98146 17.4902C1.06132 19.5348 -0.00518859 22.2358 1.89811e-05 25.0407C1.89811e-05 25.8364 0.31609 26.5994 0.878699 27.162C1.44131 27.7247 2.20437 28.0407 3.00002 28.0407H25C25.7957 28.0407 26.5587 27.7247 27.1213 27.162C27.6839 26.5994 28 25.8364 28 25.0407C28.0052 22.2358 26.9387 19.5348 25.0186 17.4902C23.0984 15.4455 20.4697 14.2116 17.67 14.0407ZM8.50002 7.54073C8.50002 6.45293 8.82259 5.38956 9.42694 4.48509C10.0313 3.58062 10.8903 2.87567 11.8953 2.45939C12.9003 2.04311 14.0061 1.93419 15.073 2.14641C16.1399 2.35863 17.1199 2.88245 17.8891 3.65164C18.6583 4.42083 19.1821 5.40083 19.3943 6.46773C19.6066 7.53462 19.4976 8.64049 19.0814 9.64549C18.6651 10.6505 17.9601 11.5095 17.0557 12.1138C16.1512 12.7182 15.0878 13.0407 14 13.0407C12.5421 13.0381 11.1447 12.4578 10.1139 11.4269C9.08297 10.396 8.50266 8.9986 8.50002 7.54073ZM9.00002 20.0407C9.1978 20.0407 9.39114 20.0994 9.55559 20.2093C9.72004 20.3191 9.84821 20.4753 9.9239 20.658C9.99959 20.8408 10.0194 21.0418 9.9808 21.2358C9.94222 21.4298 9.84698 21.608 9.70713 21.7478C9.56727 21.8877 9.38909 21.9829 9.19511 22.0215C9.00113 22.0601 8.80006 22.0403 8.61734 21.9646C8.43461 21.8889 8.27843 21.7607 8.16855 21.5963C8.05867 21.4318 8.00002 21.2385 8.00002 21.0407C8.00002 20.7755 8.10538 20.5212 8.29291 20.3336C8.48045 20.1461 8.7348 20.0407 9.00002 20.0407ZM25 26.0407H3.00002C2.7348 26.0407 2.48045 25.9354 2.29291 25.7478C2.10538 25.5603 2.00002 25.3059 2.00002 25.0407C2.00318 23.1822 2.58164 21.3702 3.65596 19.8536C4.73028 18.337 6.24777 17.1902 8.00002 16.5707V18.2207C7.33281 18.4566 6.77046 18.9208 6.41239 19.5312C6.05431 20.1416 5.92355 20.859 6.04322 21.5565C6.16289 22.254 6.52529 22.8867 7.06636 23.3428C7.60743 23.799 8.29233 24.0492 9.00002 24.0492C9.70771 24.0492 10.3926 23.799 10.9337 23.3428C11.4747 22.8867 11.8371 22.254 11.9568 21.5565C12.0765 20.859 11.9457 20.1416 11.5877 19.5312C11.2296 18.9208 10.6672 18.4566 10 18.2207V16.1007C10.3318 16.0605 10.6658 16.0405 11 16.0407H17C17.3343 16.0405 17.6682 16.0605 18 16.1007V19.2207C17.4165 19.427 16.911 19.8088 16.553 20.3137C16.1949 20.8185 16.0018 21.4218 16 22.0407V23.0407C16 23.3059 16.1054 23.5603 16.2929 23.7478C16.4804 23.9354 16.7348 24.0407 17 24.0407C17.2652 24.0407 17.5196 23.9354 17.7071 23.7478C17.8947 23.5603 18 23.3059 18 23.0407V22.0407C18 21.7755 18.1054 21.5212 18.2929 21.3336C18.4804 21.1461 18.7348 21.0407 19 21.0407C19.2652 21.0407 19.5196 21.1461 19.7071 21.3336C19.8947 21.5212 20 21.7755 20 22.0407V23.0407C20 23.3059 20.1054 23.5603 20.2929 23.7478C20.4804 23.9354 20.7348 24.0407 21 24.0407C21.2652 24.0407 21.5196 23.9354 21.7071 23.7478C21.8947 23.5603 22 23.3059 22 23.0407V22.0407C21.9983 21.4218 21.8051 20.8185 21.4471 20.3137C21.089 19.8088 20.5836 19.427 20 19.2207V16.5707C21.7523 17.1902 23.2698 18.337 24.3441 19.8536C25.4184 21.3702 25.9969 23.1822 26 25.0407C26 25.3059 25.8947 25.5603 25.7071 25.7478C25.5196 25.9354 25.2652 26.0407 25 26.0407Z" fill="#14332B"/>
</svg>
