<svg width="56" height="57" viewBox="0 0 56 57" fill="none" xmlns="http://www.w3.org/2000/svg">
<path d="M4.63488 28.1117C4.63488 28.2411 4.63488 28.3706 4.63488 28.5C4.63488 32.4832 5.60578 36.3781 7.46089 39.8376L4.06852 43.2913C1.40433 38.8433 0 33.7364 0 28.4941C0 28.1529 0.00577915 27.8116 0.0231166 27.4704C0.190712 22.5105 1.62972 17.686 4.19567 13.4851C6.46109 9.76084 9.5934 6.57194 13.2458 4.2597C17.6669 1.47678 22.7641 0 27.9942 0C33.2244 0 38.154 1.42971 42.523 4.13615L39.1307 7.5898C35.7325 5.70706 31.9067 4.71274 27.9942 4.71274C23.631 4.71274 19.3833 5.9424 15.6904 8.2723C15.1356 8.61943 14.5924 8.99597 14.0722 9.39606C15.8118 8.8783 17.6438 8.60178 19.5451 8.60178C21.5389 8.60178 23.5038 8.90772 25.3878 9.50784C28.156 10.3904 30.7451 11.9319 32.8834 13.9558L29.7222 17.4036C28.0925 15.8503 26.116 14.6795 24.0066 14.0088C22.5734 13.5499 21.0708 13.3204 19.5509 13.3204C11.5872 13.3204 5.06254 19.71 4.658 27.7175C4.65222 27.8469 4.64644 27.9822 4.64066 28.1117H4.63488Z" fill="#45C69F"/>
<path d="M55.9884 28.4941C55.9884 28.6589 55.9884 28.8295 55.9884 29.0001C55.9884 29.0531 55.9884 29.1119 55.9827 29.1648C55.9827 29.2237 55.9827 29.2825 55.9769 29.3472C55.9769 29.4002 55.9769 29.4531 55.9711 29.512C55.9711 29.5355 55.9711 29.559 55.9711 29.5767C55.7977 34.5012 54.3587 39.3199 51.8043 43.509C49.5389 47.2274 46.4066 50.4222 42.7542 52.7285C38.3389 55.5173 33.2417 57 28.0116 57C22.7814 57 17.742 55.535 13.3441 52.7697L16.7307 49.3219C20.1692 51.2576 24.0471 52.2814 28.0116 52.2814C32.3748 52.2814 36.6225 51.0458 40.3154 48.7159C40.8528 48.3747 41.373 48.0099 41.8815 47.6275C40.1651 48.1217 38.3505 48.3865 36.4665 48.3865C34.4727 48.3865 32.5077 48.0805 30.6237 47.4804C27.8555 46.5979 25.2665 45.0564 23.1282 43.0324L26.2894 39.5846C27.9191 41.132 29.8956 42.3087 32.005 42.9795C33.4382 43.4384 34.9408 43.6678 36.4607 43.6678C44.3261 43.6678 50.9143 37.2783 51.3478 29.3355C51.3478 29.2884 51.3478 29.2413 51.3536 29.1884C51.3536 29.0825 51.3593 28.9825 51.3651 28.8765C51.3651 28.8471 51.3651 28.8177 51.3651 28.7824C51.3651 28.6824 51.3651 28.5824 51.3651 28.4824C51.3651 24.4462 50.3653 20.4983 48.464 16.9976L51.8506 13.5499C54.5668 18.0214 56 23.1871 56 28.4824L55.9884 28.4941Z" fill="#45C69F"/>
</svg>
